<?xml version="1.0" encoding="utf-8"?>
<!-- Generator: Adobe Illustrator 16.0.0, SVG Export Plug-In . SVG Version: 6.00 Build 0)  -->
<!DOCTYPE svg PUBLIC "-//W3C//DTD SVG 1.1//EN" "http://www.w3.org/Graphics/SVG/1.1/DTD/svg11.dtd">
<svg version="1.1" id="Layer_1" xmlns="http://www.w3.org/2000/svg" xmlns:xlink="http://www.w3.org/1999/xlink" x="0px" y="0px"
	 width="189px" height="359px" viewBox="0 0 189 359" enable-background="new 0 0 189 359" xml:space="preserve">
<g>
	<path fill="#50505A" d="M189,294v50.83c0,0.42-0.02,0.82-0.06,1.23c-0.63,7.22-6.73,12.94-14.11,12.94H14.18
		C6.38,359,0,352.63,0,344.83V132.18C0,124.38,6.38,118,14.18,118H65v176H189z"/>
	<path fill="#50505A" d="M189,132.18V229h-59V118h44.83C182.63,118,189,124.38,189,132.18z"/>
	<path fill="#FF0000" d="M189,14.18v30.65c0,7.8-6.37,14.17-14.17,14.17h-30.65c-7.8,0-14.18-6.37-14.18-14.17V14.18
		C130,6.38,136.38,0,144.18,0h30.65C182.63,0,189,6.38,189,14.18z"/>
</g>
</svg>
